<svg id="ambient-logo" xmlns="http://www.w3.org/2000/svg" width="329" height="405.5" viewBox="0 0 329 405.5">
  <path id="Pfad_249" data-name="Pfad 249" d="M118.7,307.9c17.3-1.2,32-1.6,40.2-1.7Zm51.5-1.7c7.9.1,21.7.4,38.1,1.5Zm-5.8-96.5s-32.3,71.3-33.1,73.2a574.523,574.523,0,0,1,64.4,0c-1-2.5-31.3-73.2-31.3-73.2Z" fill="#260507"/>
  <path id="Pfad_250" data-name="Pfad 250" d="M240.2,310.7l23.2,51.7H232.3l-24.1-54.6c-16.4-1.1-30.1-1.4-38.1-1.5H158.8c-8.3.1-22.9.5-40.2,1.7L93.3,362.5H62.7l23.9-51.4C41.5,316.7,0,329.1,0,355.9c0,48.2,147,49.6,164.5,49.6,17.4,0,164.5-1.4,164.5-49.6,0-27.5-43-39.7-88.8-45.2Zm-11-24.6a482.379,482.379,0,0,1,86.1,17.1S178.5,24.7,165.6,0C151.6,25.7,16,303.1,16,303.1a483.835,483.835,0,0,1,82.1-16.6L164.9,143Z" fill="#260507"/>
</svg>
