<svg height="100.9" viewBox="0 0 88.967 100.9" width="88.967" xmlns="http://www.w3.org/2000/svg"><g transform="translate(-19.516 -25.893)"><path d="m27.613 116.706-8.1-90.813h88.967l-8.1 90.8-36.434 10.1z" fill="#1572b6"/><path d="m64 119.072 29.44-8.162 6.926-77.591h-36.366z" fill="#33a9dc"/><path d="m64 66.22h14.738l1.019-11.4h-15.757v-11.143h27.929l-.267 2.988-2.737 30.692h-24.925z" fill="#fff"/><path d="m64.067 95.146-.049.014-12.4-3.35-.794-8.883h-11.183l1.559 17.488 22.814 6.333.052-.015v-11.587z" fill="#ebebeb"/><path d="m77.792 76.886-1.342 14.914-12.422 3.355v11.588l22.833-6.328.168-1.882 1.938-21.647z" fill="#fff"/><path d="m64.039 43.677v11.137h-26.9l-.224-2.5-.507-5.646-.267-2.988h27.9zm-.039 22.544v11.138h-12.247l-.223-2.5-.508-5.647-.267-2.988z" fill="#ebebeb"/></g></svg>