<svg xmlns="http://www.w3.org/2000/svg" width="88.378" height="100.23" viewBox="0 0 88.378 100.23"><g transform="translate(-19.811 -26.143)"><path d="M27.854,116.354,19.811,26.143h88.378l-8.051,90.2L63.946,126.373Z" fill="#e44d26"/><path d="M64,118.7,93.244,110.6l6.881-77.076H64Z" fill="#f16529"/><path d="M64,66.978H49.359l-1.01-11.331H64V44.583H36.257l.264,2.969,2.72,30.489H64Zm0,28.733-.049.013L51.63,92.4l-.788-8.823H39.735l1.55,17.372,22.664,6.292.051-.015Z" fill="#ebebeb"/><path d="M63.962,66.978V78.041H77.586L76.3,92.39l-12.34,3.331v11.51l22.682-6.286.166-1.87,2.6-29.127.27-2.97H63.962Zm0-22.395V55.647H90.687l.221-2.487.5-5.608.265-2.969Z" fill="#fff"/></g></svg>