<svg height="93.176" viewBox="0 0 41.873 93.176" width="41.873" xmlns="http://www.w3.org/2000/svg"><g fill-rule="evenodd" transform="translate(-43.064 -3.141)"><path d="m82.362 33.544a43.667 43.667 0 0 1 2.4 10.92 48.035 48.035 0 0 1 -.786 13.859l-.126.366a6.174 6.174 0 0 0 -.923.009c-2.543.4-5.083.814-7.624 1.226-2.627.426-5.256.835-7.878 1.289-.929.16-2.079-.031-2.454 1.253l-.18.061.127-7.678-.129-18.526 1.224-.21c2-.327 4-.66 6.006-.979q3.585-.569 7.174-1.119c1.056-.162 2.113-.313 3.169-.471z" fill="#439934"/><path d="m62.265 84.911c-1.291-1.11-2.627-2.171-3.864-3.339a47.813 47.813 0 0 1 -13.928-22.586 36.565 36.565 0 0 1 -1.243-7.479 41.979 41.979 0 0 1 -.117-5.328 62.591 62.591 0 0 1 2.387-13.862l.076-.1a2.224 2.224 0 0 1 .394.537q2.016 5.934 4 11.879 6.259 18.667 12.514 37.349a2.974 2.974 0 0 0 .445.661z" fill="#45a538"/><path d="m82.362 33.544c-1.057.157-2.114.309-3.169.471q-3.588.555-7.174 1.119c-2 .318-4 .651-6.006.979l-1.224.21-.01-.8c-.041-.656-.109-1.312-.118-1.968l-.137-12.555q-.048-3.928-.133-7.856c-.033-1.627-.068-3.255-.141-4.88-.04-.873-.181-1.742-.237-2.615-.033-.5.011-1.008.022-1.512.624 1.209 1.235 2.427 1.876 3.627a23.132 23.132 0 0 0 4.083 4.82 53.794 53.794 0 0 1 12.368 20.96z" fill="#46a037"/><path d="m64.792 62.527.18-.061c.375-1.284 1.525-1.093 2.454-1.253 2.622-.454 5.251-.863 7.878-1.289 2.541-.411 5.081-.825 7.624-1.226a6.173 6.173 0 0 1 .923-.009c-.475 1.7-.849 3.429-1.452 5.078a56.946 56.946 0 0 1 -2.392 5.486 37.6 37.6 0 0 1 -4.853 7.458c-1.466 1.762-3.1 3.393-4.737 5-.906.889-1.972 1.614-2.966 2.414l-.258-.176-.927-.792-.959-2.1a31.649 31.649 0 0 1 -1.065-7.516l.018-.428.131-1.854c.043-.633.1-1.265.128-1.9.1-2.276.182-4.554.273-6.832z" fill="#409433"/><path d="m64.792 62.527c-.09 2.278-.176 4.557-.273 6.835-.027.634-.084 1.266-.128 1.9l-.584.221c-1.3-3.821-2.6-7.6-3.867-11.392-2.1-6.271-4.176-12.551-6.274-18.824q-2.54-7.593-5.118-15.176a2.614 2.614 0 0 0 -.471-.631l3.74-6.877a3.965 3.965 0 0 1 .379.672q2.595 7.68 5.169 15.367 3.342 10 6.667 20.014a8.193 8.193 0 0 0 .375.811l.512-.6q-.064 3.84-.127 7.678z" fill="#4faa41"/><path d="m48.076 25.458a2.563 2.563 0 0 1 .471.631q2.575 7.583 5.118 15.176c2.1 6.273 4.173 12.553 6.274 18.824 1.27 3.79 2.569 7.57 3.867 11.392l.584-.221-.131 1.854-.119.427c-.2 2.029-.374 4.062-.622 6.087-.124 1.015-.389 2.011-.59 3.015a3.008 3.008 0 0 1 -.445-.661q-6.265-18.674-12.509-37.354-1.99-5.945-4-11.879a2.224 2.224 0 0 0 -.394-.537l2.5-6.754z" fill="#4aa73c"/><path d="m64.918 54.849-.512.6a8.193 8.193 0 0 1 -.375-.811q-3.339-10.011-6.667-20.018-2.564-7.689-5.169-15.367a3.965 3.965 0 0 0 -.379-.672l4.625-6.081a2.452 2.452 0 0 1 .429.586q1.926 5.64 3.822 11.289c1.182 3.518 2.346 7.04 3.542 10.552.08.235.359.4.545.6l.01.8z" fill="#57ae47"/><path d="m64.779 35.525c-.187-.2-.465-.365-.545-.6-1.195-3.512-2.36-7.034-3.542-10.552q-1.9-5.649-3.822-11.289a2.452 2.452 0 0 0 -.429-.586c1.5-1.473 2.961-3 4.526-4.4 1.391-1.248 2.509-2.586 2.561-4.559l.11-.393.4 1c-.01.5-.055 1.01-.022 1.512.057.873.2 1.742.237 2.615.073 1.625.108 3.253.141 4.88q.08 3.927.133 7.856l.137 12.554c.01.657.079 1.313.119 1.969z" fill="#60b24f"/><path d="m62.929 82.642c.2-1 .466-2 .59-3.015.248-2.024.419-4.058.622-6.087l.051-.008.05.009a31.649 31.649 0 0 0 1.065 7.516 2.328 2.328 0 0 0 -.4.535c-.555 1.566-1.079 3.145-1.637 4.71a2.326 2.326 0 0 1 -.439.568l-.571-1.96.665-2.268z" fill="#a9aa88"/><path d="m62.835 86.871a2.345 2.345 0 0 0 .439-.568c.558-1.565 1.082-3.144 1.637-4.71a2.3 2.3 0 0 1 .4-.535l.959 2.1a3.722 3.722 0 0 0 -.556.81l-1.836 5.392c-.076.217-.333.369-.507.552z" fill="#b6b598"/><path d="m63.367 89.915c.173-.183.431-.335.507-.552l1.836-5.392a3.687 3.687 0 0 1 .556-.81l.928.791a1.63 1.63 0 0 0 -.547 1.6l-.282.923a1.9 1.9 0 0 0 -.377.477c-.641 1.836-1.252 3.682-1.9 5.517a2.626 2.626 0 0 1 -.468.621l-.255-3.177z" fill="#c2c1a7"/><path d="m63.621 93.091a2.573 2.573 0 0 0 .468-.621c.646-1.835 1.258-3.681 1.9-5.517a1.917 1.917 0 0 1 .377-.477l-.389 4.236c-.1.12-.254.225-.3.364l-1.294 3.708a4.777 4.777 0 0 1 -.4.716c-.121-.158-.337-.311-.347-.475-.038-.642-.011-1.289-.008-1.934z" fill="#cecdb7"/><path d="m63.977 95.5a4.776 4.776 0 0 0 .4-.716l1.294-3.708c.05-.14.2-.244.3-.364l.01 2.78-.931 2.387z" fill="#dbdac7"/><path d="m65.055 95.88.931-2.387.192 2.824z" fill="#ebe9dc"/><path d="m66.646 85.554a1.634 1.634 0 0 1 .547-1.6l.258.176-.805 1.426z" fill="#cecdb7"/><path d="m64.242 73.542-.05-.009-.051.008.119-.427z" fill="#4faa41"/></g></svg>