<svg xmlns="http://www.w3.org/2000/svg" width="19.19" height="18.778" viewBox="0 0 19.19 18.778"><path d="M19.018,16.247l-.2.5a13.967,13.967,0,0,1-2.495,3.423c-5.458,5.959-9.062,6.1-4.547.645,0,0,5-4.38-.18-10.91-4.1-5.17-.85-4.333,1.2-2.453.831.76,2.54,2.339,3.938,3.836C18.461,13.134,19.649,14.3,19.018,16.247ZM7.468,18.965s2.924-2.87-.11-7.152c-2.4-3.39-.5-2.84.7-1.607.487.5,1.489,1.534,2.308,2.516,1.54,1.846,2.35,2.658-.238,5.822-3.192,3.9-5.3,3.994-2.662.421Zm-5.96-1.75s3.61-1.446-.1-3.578c-2.935-1.687-.6-1.42.873-.807q1.429.587,2.824,1.25C6.99,15,7.983,15.4,4.785,16.994c-3.946,1.964-6.542,2.017-3.277.22Z" transform="translate(0 -6)" fill="#f8f9fa"/></svg>