<svg height="90.9" viewBox="0 0 101.8 90.9" width="101.8" xmlns="http://www.w3.org/2000/svg"><g fill="#61dafb" transform="translate(-13.1 -2.1)"><circle cx="64" cy="47.5" r="9.3"/><path d="m64 81.7c7.3 7.1 14.5 11.3 20.3 11.3a10.048 10.048 0 0 0 5.2-1.3c5.2-3 7.1-10.5 5.3-21.2-.3-1.9-.7-3.8-1.2-5.8 2-.6 3.8-1.2 5.6-1.8 10.1-3.9 15.7-9.3 15.7-15.2 0-6-5.6-11.4-15.7-15.2a45.873 45.873 0 0 0 -5.6-1.8c.5-2 .9-3.9 1.2-5.8 1.7-10.9-.2-18.5-5.4-21.5a10.048 10.048 0 0 0 -5.2-1.3c-5.7 0-13 4.2-20.3 11.3-7.2-7.1-14.4-11.3-20.2-11.3a10.048 10.048 0 0 0 -5.2 1.3c-5.2 3-7.1 10.5-5.3 21.2.3 1.9.7 3.8 1.2 5.8-2 .6-3.8 1.2-5.6 1.8-10.1 3.9-15.7 9.3-15.7 15.2 0 6 5.6 11.4 15.7 15.2a45.874 45.874 0 0 0 5.6 1.8c-.5 2-.9 3.9-1.2 5.8-1.7 10.7.2 18.3 5.3 21.2a10.048 10.048 0 0 0 5.2 1.3c5.8.2 13-4 20.3-11zm-5.6-13.5c1.8.1 3.7.1 5.6.1s3.8 0 5.6-.1c-1.8 2.4-3.7 4.6-5.6 6.7-1.9-2.1-3.8-4.3-5.6-6.7zm-12.4-10.3c1 1.7 1.9 3.3 3 4.9-3.1-.4-6-.9-8.8-1.5.9-2.7 1.9-5.5 3.1-8.3.8 1.6 1.7 3.3 2.7 4.9zm-5.8-24.1c2.8-.6 5.7-1.1 8.8-1.5-1 1.6-2 3.2-3 4.9s-1.9 3.3-2.7 5a66.851 66.851 0 0 1 -3.1-8.4zm5.5 13.7c1.3-2.7 2.7-5.4 4.3-8.1 1.5-2.6 3.2-5.2 4.9-7.8 3-.2 6-.3 9.1-.3 3.2 0 6.2.1 9.1.3 1.8 2.6 3.4 5.2 4.9 7.8 1.6 2.7 3 5.4 4.3 8.1-1.3 2.7-2.7 5.4-4.3 8.1-1.5 2.6-3.2 5.2-4.9 7.8-3 .2-6 .3-9.1.3-3.2 0-6.2-.1-9.1-.3-1.8-2.6-3.4-5.2-4.9-7.8-1.6-2.7-3-5.4-4.3-8.1zm39.1-5.4-2.7-5c-1-1.7-1.9-3.3-3-4.9 3.1.4 6 .9 8.8 1.5-.9 2.8-1.9 5.6-3.1 8.4zm0 10.8c1.2 2.8 2.2 5.6 3.1 8.3-2.8.6-5.7 1.1-8.8 1.5 1-1.6 2-3.2 3-4.9.9-1.5 1.8-3.2 2.7-4.9zm2.3 34.7a5.426 5.426 0 0 1 -2.9.7c-4.9 0-11-4-17-10a104.7 104.7 0 0 0 8.5-10.5 91.584 91.584 0 0 0 13.4-2.1 51.69 51.69 0 0 1 1.1 5.4c1.4 8.5.3 14.6-3.1 16.5zm5.2-52.7c11.2 3.2 17.9 8.1 17.9 12.6 0 3.9-4.6 7.8-12.7 10.9-1.6.6-3.4 1.2-5.2 1.7a105.1 105.1 0 0 0 -4.9-12.6 90.573 90.573 0 0 0 4.9-12.6zm-8-28.2a5.664 5.664 0 0 1 2.9.7c3.3 1.9 4.5 7.9 3.1 16.5-.3 1.7-.7 3.5-1.1 5.4a129.775 129.775 0 0 0 -13.4-2.1 92.392 92.392 0 0 0 -8.5-10.5c6-5.9 12.1-10 17-10zm-14.7 20.1c-1.8-.1-3.7-.1-5.6-.1s-3.8 0-5.6.1c1.8-2.4 3.7-4.6 5.6-6.7 1.9 2.1 3.8 4.4 5.6 6.7zm-28.7-19.4a5.426 5.426 0 0 1 2.9-.7c4.9 0 11 4 17 10a104.7 104.7 0 0 0 -8.5 10.5 91.584 91.584 0 0 0 -13.4 2.1 51.691 51.691 0 0 1 -1.1-5.4c-1.4-8.5-.3-14.5 3.1-16.5zm-5.2 52.7c-11.2-3.2-17.9-8.1-17.9-12.6 0-3.9 4.6-7.8 12.7-10.9 1.6-.6 3.4-1.2 5.2-1.7a105.1 105.1 0 0 0 4.9 12.6 95.685 95.685 0 0 0 -4.9 12.6zm2.1 11c.3-1.7.7-3.5 1.1-5.4a129.774 129.774 0 0 0 13.4 2.1 92.392 92.392 0 0 0 8.5 10.5c-6 5.9-12.1 10-17 10a5.664 5.664 0 0 1 -2.9-.7c-3.4-1.9-4.5-8-3.1-16.5z"/></g></svg>