<svg height="627.244" viewBox="0 0 535.51 627.244" width="535.51" xmlns="http://www.w3.org/2000/svg" xmlns:xlink="http://www.w3.org/1999/xlink"><linearGradient id="a" gradientUnits="objectBoundingBox" x1=".5" x2=".5" y1="1.003" y2="-.015"><stop offset="0" stop-color="#e1ac8f" stop-opacity=".8"/><stop offset=".7" stop-color="#c27b55"/></linearGradient><radialGradient id="b" cx=".492" cy=".366" gradientTransform="matrix(-.467 0 0 .88 3.6 .049)" gradientUnits="objectBoundingBox" r="1.104"><stop offset="0" stop-color="#fff"/><stop offset=".544" stop-color="#fdfefe"/><stop offset=".74" stop-color="#f6f8f9"/><stop offset=".879" stop-color="#eaeff2"/><stop offset=".992" stop-color="#d9e3e8"/><stop offset="1" stop-color="#d8e2e7"/></radialGradient><radialGradient id="c" cx=".502" cy=".48" fx=".813751" fy=".337515" gradientTransform="matrix(.802 .024 .013 -.704 .364 .73)" gradientUnits="objectBoundingBox" r=".656"><stop offset="0" stop-color="#e1ac8f"/><stop offset=".7" stop-color="#e1ac8f" stop-opacity=".302"/><stop offset="1" stop-color="#f0c7b1" stop-opacity="0"/></radialGradient><radialGradient id="d" cx=".419" cy="1.925" gradientTransform="matrix(.466 -.06 .024 .869 .373 .08)" gradientUnits="objectBoundingBox" r="2.069"><stop offset=".9" stop-opacity="0"/><stop offset="1" stop-opacity=".2"/></radialGradient><radialGradient id="e" cx=".508" cy=".366" gradientTransform="matrix(.467 0 0 .88 .252 .048)" r="1.104" xlink:href="#b"/><radialGradient id="f" cx=".498" cy=".48" fx=".808884" gradientTransform="matrix(-.802 .018 -.01 -.704 .901 .765)" r=".656" xlink:href="#c"/><radialGradient id="g" cx=".581" cy="1.925" gradientTransform="matrix(-.467 -.045 -.018 .87 -1.811 -.019)" r="2.069" xlink:href="#d"/><radialGradient id="h" cx=".5" cy=".5" gradientUnits="objectBoundingBox" r=".5"><stop offset="0" stop-color="#ffe4d6" stop-opacity=".502"/><stop offset=".9" stop-color="#f0c7b1" stop-opacity="0"/></radialGradient><radialGradient id="i" cx=".5" cy=".5" r=".493" xlink:href="#h"/><g transform="translate(-32.155 -27.534)"><g transform="translate(44.938 52.974)"><path d="m256.275 256.275h-2.55v-2.55h2.55z" fill="#543c32"/><path d="m498.313 509.434c-5.6-12.1-20.9-30.036-37.893-34.991-21.009-6.128-68.434-13.535-86.019-17.654-14.1-3.3-42.488-28.8-52.438-37.357a10.77 10.77 0 0 1 -3.282-7.038c-.354-27.7 10.7-101.3 10.7-101.3h-148.757s11.052 73.59 10.692 101.3a10.752 10.752 0 0 1 -3.277 7.038c-9.95 8.558-38.342 34.053-52.438 37.357-17.587 4.118-65.012 11.779-86.019 17.906-17 4.952-32.293 22.634-37.893 34.736-9.455 20.421-11.689 57.375-11.689 89.25h510c0-31.872-2.236-68.827-11.687-89.247z" fill="#f0c7b1"/><path d="m405.848 469.348c62.072 9.032 88.194 22.205 96.375 129.339h7.777c0-31.875-2.236-68.83-11.687-89.25-5.6-12.1-20.9-30.036-37.893-34.991-21.009-6.128-68.434-13.535-86.019-17.654-14.1-3.3-46.517-30.776-55.19-41.693 8.568 12 32.617 39.793 53.688 47.073 10.08 3.484 18.475 5.07 32.949 7.176zm-268.748-7.176c21.071-7.278 45.117-35.078 53.688-47.073-8.67 10.914-41.091 38.388-55.19 41.693-17.585 4.118-65.01 11.779-86.019 17.906-17 4.952-32.293 22.634-37.893 34.736-9.447 20.42-11.686 57.375-11.686 89.25h7.78c8.129-106.447 34.361-120.317 96.375-129.339 14.471-2.103 22.868-3.689 32.945-7.173z" fill="#ffe4d6"/><path d="m243.9 503.931s-12.939-4.1-18.062-6.066c-26.645-10.223-113.207-16.848-113.207-16.848s91.173 3.618 111.292 7.086c-1.168-12.156-7.693-51.01-7.693-51.01s13.13 42.878 16.343 53.7c1.716 5.779 11.327 13.138 11.327 13.138zm27.537-3.422c-.227.186-.487.428-.77.683a5.786 5.786 0 0 0 .768-.683zm-27.537 3.422s7.377 7.63 11.085 7.727c4.871.13 12.311-7.392 15.685-10.465-3.226 2.44-10.605 3.547-13.54 3.662-3.395.129-13.23-.924-13.23-.924zm53.6-19.173c-3.94.632-11.184 2.012-11.184 2.012l5.832-37.969c-1.647 7.831-11.409 41.338-20.706 51.709 4.871-4.121 15.7-6.1 21.226-6.9 26.1-3.784 26.092-3.782 104.708-12.6-.007.007-74.138-.389-99.883 3.748z" fill="#e1ac8f"/><path d="m498.313 509.434c-5.6-12.1-20.9-30.036-37.893-34.991-21.009-6.128-68.434-13.535-86.019-17.654-14.1-3.3-42.488-28.8-52.438-37.357a10.77 10.77 0 0 1 -3.282-7.038c-.354-27.7 10.7-101.3 10.7-101.3h-148.757s11.052 73.59 10.692 101.3a10.752 10.752 0 0 1 -3.277 7.038c-9.95 8.558-38.342 34.053-52.438 37.357-17.587 4.118-65.012 11.779-86.019 17.906-17 4.952-32.293 22.634-37.893 34.736-9.455 20.421-11.689 57.375-11.689 89.25h510c0-31.872-2.236-68.827-11.687-89.247z" fill="none" stroke="#c27b55" stroke-width="3.825"/><path d="m192.568 415.783c17.8 11.577 41.583 22.476 62.437 22.476 19.961 0 44.23-10.988 62.368-22.616a10.731 10.731 0 0 1 -.609-3.223c-.321-25.186 8.53-86.754 10.394-99.407h-144.315c1.862 12.656 10.715 74.22 10.389 99.4a10.715 10.715 0 0 1 -.664 3.37z" fill="url(#a)"/><path d="m504.385 513.942c-26.719-51.709-78.165-44.38-127.418-58.25-1.193 9.142-33.79 52.221-41.532 76.656a114.526 114.526 0 0 1 -13.283-12.918c-18.329-21.53-45.495-91.188-54.611-36.791 1.981-24.419 12.758-29.8 27.721-9.33 16.085 22.027 16.682 33.4 39.632 57.352 4.054-16.833 12.832-28.71 23.042-43.615 9.881-14.441 17.1-20.953 18.153-33.808-3.685-6.14-2.8-8.889-8.757-12.867-37.37-25.276-10.69-50.924-44.564-57.031-.265 3.055-.6 6.477-.88 9.05 7.245 3.728 9.412 18.238-1.742 28.861-17.725 19.459-46.206 20.425-53.632 50.294h-.018c-2.364 8.866-4.256 22.437-5.154 30.393l-6.26 63.49-6.3-62.365c-5.108-46.815-11.784-51.4-33.617-65.861-14.466-9.588-38.1-24.054-30.388-40.41a8.9 8.9 0 0 1 3.279-3.93c-.383-3.738-.607-5.906-.9-9.379-27.966 1.191-23.667 40.754-44.844 55.31-5.551 3.815-8.382 7.341-10.373 13.079 1.354 16.017 36.985 52.214 43.21 78.792 23.167-24.46 23.345-35.147 39.525-57.27 13.936-19.036 25.316-17.082 27.711 8.678-1.316-7.739-4.432-19.587-11.184-19.587-5.564 0-11.363 8.206-14.232 12.166-16.062 22.129-18.643 37.957-42.45 57.714a112.566 112.566 0 0 0 -5.885-14.55c-9.435-19.059-34.983-57.515-37.888-61.243-11.291 3.177-28.5 6.7-38.844 8.415-67.585 11.243-93.784 33.066-103.747 135.224 247.865-2.509 348.868-1.418 533.486-1.418-2.308-22.73-6.841-64.67-17.256-84.851z" fill="#4f6f46"/><path d="m356.921 486.5c-8.826 12.888-15.813 23.715-20.165 37.284 5.016-28 36.812-54.5 33.369-71.245-1.474-7.171-26.841-23.156-28.155-46.92 7 21.772 33.13 37.312 33.173 47.744.069 17.066-.443 7.154-18.222 33.137zm164.518 110.271c.885-22.139-6.559-65.239-15.784-83.125-26.719-51.709-80.486-45.112-129.736-58.982-.436.556 1.25 4.233.069 5.814 115.129 21.222 128.239 46.505 145.451 136.293zm-379.118-157.98c14.145-11.722 18.386-23.078 21.632-33.178-7.267 41.514-18.133 25.814-26.061 46.6-4.534 11.891 30.608 44.378 35.358 71.561-6.227-10.646-12.9-23.748-21.729-36.636-6.87-10.039-11.246-19.219-18.051-26.946-3.244-17.114 3.455-16.928 8.851-21.401zm-8.854 21.409c-1.181-1.581-2.28-3.07-2.716-3.626-49.251 13.865-98.414 5.364-125.131 57.075-9.228 17.886-13.836 54.476-16.379 76.663 4.919-26.961 12.25-60.927 27.956-81.419 26.632-36.126 75.776-43.093 116.27-48.693z" fill="#647e5c"/><path d="m305.612 437.05c-12.4 7.191-22.9 14.249-29.868 24.177 16.746.923 29.124 30.852 32.472 34.922-31.449-43.773-43.35-14.025-47.175 13.852 1.1-9.042 2.007-24.47 3.792-31.092.52-2.634 1.079-5.154 1.668-7.367h.018c7.426-29.868 35.907-30.835 53.632-50.294 11.154-10.623 8.984-25.133 1.742-28.861.278-2.573.615-6 .88-9.05a49.038 49.038 0 0 1 5.054 1.2c22.844 20.094-6.627 45.538-22.215 52.513zm-104.252 0c12.4 7.191 27.571 15.713 34.517 24.778-12.235-2.226-25.834 16.05-32.635 32.2 29.325-37.4 38.25-16.149 47.6 15.976a299.694 299.694 0 0 0 -5.671-31.092c-.52-2.634-1.076-5.154-1.668-7.367h-.015c-7.426-29.868-34.889-30.835-52.614-50.294-11.154-10.623-9.236-25.133-1.992-28.861-.278-2.573-.612-6-.877-9.05a49.036 49.036 0 0 0 -5.054 1.2c-19.144 23.376 4.403 44.013 18.41 52.51z" fill="#3d6033"/><path d="m320.984 416.474c.079-14.538-.405-6.472 1.066-22.925 5.671 3.042 6.393 15.53-1.066 22.925zm-131.93-1.374c-5.924-7.752-6.655-15.67-.885-21.649 1.383 12.897.681 11.341.885 21.649z" fill="#2d5023"/><path d="m376.441 451.133c-.525-9.032-19.923-16.565-28.529-36.146-6.163-13.949-.314-29.922-25.666-32.49a224.7 224.7 0 0 0 -2.252 34.626c-12.847 13.829-32.719 17.406-45.352 32.275-13.484 15.871-19.329 50.235-19.551 121.551l3.142-2.043s3.5-67.537 3.524-67.736c7.864-67.389 32.864-51.472 58.6-79.721 11.529-11.047 8.775-25.684 1.841-29.231.3-2.856.581-5.684.829-8.543 21.808 4.006 15.578 16.843 22.4 32.52 9.068 20.844 26.257 25.4 27.367 35.5 1.759 16.017-7.8 22.815-17.383 36.807-15.078 21.825-18.564 32.959-20.658 41.585-22.886-24.036-22.9-34.573-39.265-56.962-17.452-23.883-28.914-12.684-33.726 28.04.495-6.694 9.614-43.8 20.51-37.36 12.594 7.339 24.967 38.525 39.681 55.809a115.454 115.454 0 0 0 13.63 13.214c8.688-30.337 40.8-62.386 41.84-77.023 50.222 14.168 136.269-.37 143.925 142.706-104.9.561-218.828-1.739-532.874 1.413 4.552-47.014 12.25-93.1 40.094-113.865 11.947-8.943 25.8-13.62 40.066-16.6 19.882-4.121 42.131-6.77 61.845-12.1 2.009 2.55 36.223 54.055 43.921 75.472 27.7-21.683 38.778-62.37 54.029-69.4 10.618-4.878 19.275 30.442 19.77 37.11-4.156-43.072-17.723-57.166-43.411-12.554-12.658 21.991-16.014 27.953-29.478 42.1-5.406-22.935-43.082-66.183-41.445-78.188 1.617-11.847 16.1-8.576 25.75-33.772 5.411-14.127 4.213-29.7 27.305-34.31.25 2.976.553 5.916.857 8.889-6.321 4.159-7.928 18.133 2.173 27.9 9.1 10.417 25.51 16.361 36.35 24.674 12.778 9.861 17.832 19.959 21.9 55.258.089.77 3.494 68.7 3.494 68.7l3.4 1.7c-1.7-70.974-8.5-113.648-22.239-125.608-11.863-10.582-32.576-17.33-42.628-29.144.306-8.864-1.441-26.821-2.532-33.586-22.973 2.341-23.623 16.927-28.55 29.662-13.171 34.045-25.842 24.294-27.94 38.4a11.919 11.919 0 0 0 .426 4.065c-19.329 3.947-43.452 6.536-62.835 10.08-28.925 5.281-56.215 20.548-68.659 49.6-9.453 22.05-12.192 61.33-12.885 85.535a3.591 3.591 0 0 0 -.028.548c.388.031.8.031 1.188.031 332.711 3.537 531.545-1.474 534.312-1.474.967-136.047-73.409-130.097-146.283-147.914zm-55.2-35.422c.041-7.479.268-16.139.811-22.162 4.073 2.907 7.237 12.569-.813 22.162zm-132.314-1.1c-6.763-8.851-4.08-17.432-1.01-20.4.638 5.983.89 14.36 1.007 20.401z" fill="#1f4116"/><path d="m116.461 215.077c-3.787-6.278-16.134-23.457-25.579-21.048-7.682 1.971-7.582 12.677-8.175 19.011-.867 9.292-1.183 25.48 1.339 32.048 2.425 6.306 10.1 18.493 14.861 23.141 5.862 5.7 15.224 23.863 16.376 25.747 1.813 2.978 5.449 7.242 11.029 6.905 7.831-.472 14.6-7.872 15.211-11.437 3.317-19.353-15.206-58.031-25.062-74.367z" fill="#f0c7b1" stroke="#c27b55" stroke-width="3.825"/><path d="m112.71 253.32c-.365-1.436.018-3.858.393-6.194a21.866 21.866 0 0 0 .464-5.564c-.737-5.329-4.883-15.453-7.589-20.941-3.119-6.314-8.157-14.267-14.481-16.317a4.859 4.859 0 0 0 -5.327 1.196c-.734.755-.9 1.645-.66 1.752s.783-.632 1.573-1.323c.648-.566-1.3-.1 0 0-.523 2.652-2.206 16.07-1.046 25.865.913 7.706 2.677 13.461 3.221 14.323a19.657 19.657 0 0 0 .408 2.66c2.555 11.246 19.171 25.951 23.037 30.141.714.773 1.464 1.232 1.647 1.043s-.258-.951-.966-1.729c-3.82-4.162-20.326-18.822-22.794-29.669-2.619-11.511 9.976-28.578 11.982-32.189 1.023 1.7 1.892 3.323 2.56 4.679.528 1.063 1.107 2.31 1.709 3.659-1.181 1.882-13.051 15.624-10.032 26.625 1.117 4.057 9.746 9.287 13.084 10.718a6.694 6.694 0 0 1 3.325 3.33c.928 1.591.084 5.684 3.136 6.984a4.277 4.277 0 0 0 1.68.372 3.091 3.091 0 0 0 2-.724c.051.691.048 1.578.023 2.4-.031 1.066.12 1.553.377 1.573s.535-.444.569-1.5a14.848 14.848 0 0 0 -.2-3.682c-.686-2.267-2.774-4.83-4.99-7.54-2.177-2.668-2.537-7.725-3.103-9.948zm-23.539-9.968c-5.987-17.654 3.272-33.734 4.616-36.156 2.581 1.017 6.533 5.592 8.214 8.249-1.225 2.124-12.58 16.031-12.83 27.907zm27.548 28.132c-2.764-1.178-1.8-5.059-2.693-6.589a7.635 7.635 0 0 0 -3.771-3.723 9.917 9.917 0 0 1 -1.487-.847c-6.839-15.491.747-22.262 2.649-23.646a34.058 34.058 0 0 1 1.214 5.023 21.947 21.947 0 0 1 -.462 5.273c-.39 2.435-.791 4.957-.375 6.589.622 2.43 1.048 7.574 3.292 10.322 1.992 2.438 4.037 4.952 4.735 7a2.372 2.372 0 0 1 -3.102.597z" fill="#c27b55"/><path d="m392.868 215.077c3.79-6.277 16.132-23.457 25.579-21.047 7.681 1.969 7.581 12.676 8.178 19.01.867 9.292 1.181 25.48-1.339 32.048-2.425 6.306-10.1 18.493-14.861 23.141-5.862 5.7-15.226 23.863-16.376 25.747-1.813 2.978-5.449 7.242-11.031 6.905-7.829-.472-14.594-7.872-15.211-11.437-3.315-19.353 15.211-58.031 25.061-74.367z" fill="#f0c7b1" stroke="#c27b55" stroke-width="3.825"/><path d="m393.521 263.27c-2.216 2.711-4.3 5.273-4.99 7.54a14.852 14.852 0 0 0 -.2 3.682c.036 1.053.309 1.52.574 1.5s.408-.507.377-1.573c-.025-.821-.031-1.708.02-2.4a3.091 3.091 0 0 0 2 .724 4.288 4.288 0 0 0 1.683-.372c3.047-1.3 2.206-5.4 3.134-6.984a6.68 6.68 0 0 1 3.328-3.33c3.338-1.431 11.967-6.658 13.084-10.718 3.019-11-8.851-24.745-10.032-26.625.6-1.349 1.181-2.6 1.7-3.659.673-1.357 1.54-2.986 2.565-4.679 2.007 3.611 14.6 20.675 11.982 32.189-2.471 10.848-18.975 25.508-22.794 29.669-.711.778-1.155 1.54-.972 1.729s.936-.27 1.647-1.043c3.866-4.19 20.479-18.9 23.034-30.141a19.273 19.273 0 0 0 .413-2.66c.538-.859 2.305-6.615 3.218-14.323 1.16-9.795-.523-23.213-1.046-25.865 1.3-.1-.648-.566 0 0 .793.691 1.334 1.428 1.573 1.323s.074-.995-.658-1.752a4.865 4.865 0 0 0 -5.329-1.193c-6.324 2.05-11.365 10-14.484 16.317-2.706 5.488-6.849 15.611-7.586 20.941a21.865 21.865 0 0 0 .464 5.564c.372 2.336.757 4.758.393 6.194-.563 2.218-.919 7.275-3.098 9.945zm13.811-47.825c1.683-2.657 5.633-7.229 8.214-8.249 1.344 2.423 10.6 18.5 4.618 36.156-.25-11.876-11.606-25.783-12.832-27.908zm-17.819 55.44c.7-2.05 2.744-4.564 4.735-7 2.241-2.749 2.67-7.892 3.292-10.322.413-1.632.015-4.154-.372-6.589a21.836 21.836 0 0 1 -.464-5.273 33.7 33.7 0 0 1 1.211-5.023c1.9 1.385 9.489 8.157 2.649 23.646a9.576 9.576 0 0 1 -1.489.847 7.656 7.656 0 0 0 -3.771 3.723c-.892 1.53.074 5.414-2.69 6.589a2.356 2.356 0 0 1 -3.101-.599z" fill="#c27b55"/><path d="m255.005 2.211c-85.726.135-155.346 70.556-155.213 157.317a159.279 159.279 0 0 0 5.105 39.867c.031.138 21.27 52.224 26.681 84.673 6.069 36.4 26.678 77.092 41.57 91.254 15.435 14.678 51.719 37.439 81.852 37.439 28.731 0 66.417-22.761 81.852-37.439 14.892-14.163 35.5-54.851 41.57-91.254 5.411-32.449 26.653-84.535 26.681-84.673h.005a159.179 159.179 0 0 0 5.105-39.867c.141-86.761-69.482-157.182-155.208-157.317z" fill="#f0c7b1"/><path d="m349.1 34.5c32.808 28.861 53.711 72.461 53.642 121.224a167.027 167.027 0 0 1 -4.86 39.867c-.028.138-20.244 52.224-25.4 84.673-5.781 36.406-25.4 77.094-39.568 91.254-14.691 14.68-50.561 37.442-77.908 37.442-28.685 0-63.22-22.761-77.908-37.442-14.173-14.16-33.788-54.848-39.566-91.254-5.151-32.446-25.367-84.533-25.4-84.673a166.77 166.77 0 0 1 -4.86-39.867c-.072-48.759 20.828-92.354 53.636-121.217a157.383 157.383 0 0 0 -61.116 125.021 159.279 159.279 0 0 0 5.105 39.867c.031.138 21.27 52.224 26.681 84.673 6.069 36.4 26.678 77.092 41.57 91.254 15.435 14.678 51.719 37.439 81.852 37.439 28.731 0 66.417-22.761 81.852-37.439 14.892-14.163 35.5-54.851 41.57-91.254 5.411-32.449 26.653-84.535 26.681-84.673h.005a159.179 159.179 0 0 0 5.105-39.867 157.358 157.358 0 0 0 -61.113-125.028z" fill="#e8b9a0"/><path d="m255.005 2.211c-85.726.135-155.346 70.556-155.213 157.317a159.279 159.279 0 0 0 5.105 39.867c.031.138 21.27 52.224 26.681 84.673 6.069 36.4 26.678 77.092 41.57 91.254 15.435 14.678 51.719 37.439 81.852 37.439 28.731 0 66.417-22.761 81.852-37.439 14.892-14.163 35.5-54.851 41.57-91.254 5.411-32.449 26.653-84.535 26.681-84.673h.005a159.179 159.179 0 0 0 5.105-39.867c.141-86.761-69.482-157.182-155.208-157.317z" fill="none" stroke="#c27b55" stroke-width="3.825"/><path d="m255.867 361.909a30.01 30.01 0 0 1 -9.945-1.395 1.275 1.275 0 1 1 .931-2.374c4.243 1.665 14.93 1.724 19.645-.492a1.274 1.274 0 1 1 1.086 2.305c-2.856 1.341-7.372 1.956-11.717 1.956zm37.447-21.627a2 2 0 0 0 -1.576-3.682c-29.748 12.73-73.292.862-73.726.745a2 2 0 1 0 -1.076 3.861 168.715 168.715 0 0 0 40.887 5.355c11.777-.003 24.424-1.543 35.491-6.279z" fill="#c27b55"/><path d="m211.831 227.269c-8.4-2-12.671 2.7-25.013 2.973-20.545.451-25.342-1.576-28.557-6.727a38.964 38.964 0 0 1 -3.223-6.633l-.255-10.58c3.386-10.07 49.83-11.1 66.045 4.549a13.947 13.947 0 0 1 1.186 4.761 27.764 27.764 0 0 1 -2.415 7.01 16.678 16.678 0 0 1 -7.768 4.647z" fill="url(#b)"/></g><g transform="translate(45.576 53.612)"><path d="m203.459 218.249a15.3 15.3 0 1 1 -10.736-18.8 15.256 15.256 0 0 1 10.736 18.8z" fill="#7b5c33" stroke="#4d3009" stroke-width="1.275"/><path d="m203.09 215.146c-1.125 9.04-7.834 13.75-15.178 13.257-6.778-.456-12.837-5.457-13.4-14.089 2.343-.673 5.457.421 8.188 0-.008.1-.043.189-.046.288a6.36 6.36 0 0 0 12.674.852 5.934 5.934 0 0 0 -.069-1.265c2.435.371 5.408.011 7.831.957z" fill="#8a6d47"/><path d="m190.911 209.095a6.11 6.11 0 0 0 -7.668 4.312 6.485 6.485 0 0 0 4.516 7.793 6.117 6.117 0 0 0 7.678-4.294 6.488 6.488 0 0 0 -4.526-7.811z" opacity=".9"/><path d="m190.911 209.095a6.11 6.11 0 0 0 -7.668 4.312 6.485 6.485 0 0 0 4.516 7.793 6.117 6.117 0 0 0 7.678-4.294 6.488 6.488 0 0 0 -4.526-7.811z" fill="none" stroke="#4d3009" stroke-width="1.912"/><g fill="#fff"><path d="m181.458 223.525a.9.9 0 0 1 -1.737-.479c.309-1.079 1.137-1.742 1.665-2.69.564-1.015 2.119-.107 1.553.908-.434.785-1.234 1.387-1.482 2.262zm2.769-1.777a17.964 17.964 0 0 0 -1.377 3.3c-.434 1.076 1.308 1.54 1.737.479a18.333 18.333 0 0 1 .915-2.507c.75-.877-.518-2.157-1.275-1.275zm3.749 5.324c.941-1.084.847-2.326.826-3.675a.9.9 0 0 0 -1.8 0c.01.747.235 1.788-.3 2.4-.757.872.51 2.15 1.272 1.272zm1.839-3.9a11.5 11.5 0 0 0 .482 3.277c.342 1.107 2.078.635 1.737-.479a9.718 9.718 0 0 1 -.418-2.8.9.9 0 0 0 -1.8 0z" opacity=".5"/><path d="m199.4 211.576c-1.772 1.063-4.437.107-5.949-2.139s-1.283-4.932.492-5.99 4.442-.11 5.941 2.137 1.293 4.929-.484 5.992z" opacity=".8"/></g></g><g transform="translate(44.938 52.974)"><path d="m137.009 214.45c-.974 8.425 25.128 56.11 51.181 56.11s49.725-13.495 49.725-56.108c0-45.362-23.672-56.1-49.725-56.1s-46.344 14.293-51.181 56.098zm18.031 2.435-.255-10.58c3.386-10.07 49.83-11.1 66.045 4.549 3.56 8.239-1.043 13.966-9 16.417-8.4-2-12.671 2.7-25.013 2.973-20.545.451-25.342-1.576-28.557-6.727a38.833 38.833 0 0 1 -3.22-6.632z" fill="#f0c7b1"/><path d="m152.23 210.151c.059 19.212 19.5 34.69 43.447 34.593s43.312-15.756 43.251-34.968-19.5-34.693-43.452-34.593-43.31 15.756-43.246 34.968zm2.81 6.735-.255-10.58c3.386-10.07 49.83-11.1 66.045 4.549 3.56 8.239-1.043 13.966-9 16.417-8.4-2-12.671 2.7-25.013 2.973-20.545.451-25.342-1.576-28.557-6.727a38.833 38.833 0 0 1 -3.22-6.633z" fill="url(#c)"/><path d="m158.261 223.518a38.964 38.964 0 0 1 -3.223-6.633l-.255-10.58c3.386-10.07 49.83-11.1 66.045 4.549 3.56 8.239-1.043 13.966-9 16.417-8.4-2-12.671 2.7-25.013 2.973-20.54.456-25.339-1.578-28.554-6.726z" fill="url(#d)"/><path d="m228.136 207.042c-24.523-14.691-42.588-15.626-71.7-13.755 24.3-3.827 52.287-1.05 71.7 13.755z" fill="#c27b55"/><path d="m224.987 217.472c-8.262-21.2-66.155-21.328-69.949-10.662v9.932c-2.6-3.924-2.67-4.164-3.782-8.68l-5.6 1.9s7-9.876 13.512-11.172c56.577-11.266 65.332 15.28 65.819 18.682zm-8.892 10.549c-11.794-5.049-15.147.964-29.486 1.262-20.41.428-24.4-1.953-28.369-6.314 2.073 5.332 3.506 7.867 27.731 7.719 13.709-.088 21.199-5.747 30.124-2.667z"/></g><path d="m297.149 227.269c8.4-2 12.671 2.7 25.013 2.973 20.545.451 25.342-1.576 28.557-6.727a38.969 38.969 0 0 0 3.223-6.633l.255-10.58c-3.386-10.07-49.83-11.1-66.045 4.549a13.948 13.948 0 0 0 -1.186 4.761 27.765 27.765 0 0 0 2.415 7.01 16.678 16.678 0 0 0 7.768 4.647z" fill="url(#e)" transform="translate(44.938 52.974)"/><g transform="translate(44.3 53.612)"><path d="m336.059 218.249a15.3 15.3 0 1 1 -10.738-18.8 15.258 15.258 0 0 1 10.738 18.8z" fill="#7b5c33" stroke="#4d3009" stroke-width="1.275"/><path d="m335.69 215.146c-1.122 9.04-7.834 13.75-15.175 13.257-6.775-.456-12.837-5.457-13.4-14.089 2.343-.673 5.46.421 8.191 0-.01.1-.043.189-.048.288a6.358 6.358 0 0 0 12.671.852 6.109 6.109 0 0 0 -.066-1.265c2.431.371 5.404.011 7.827.957z" fill="#8a6d47"/><path d="m323.511 209.095a6.111 6.111 0 0 0 -7.668 4.312 6.485 6.485 0 0 0 4.516 7.793 6.117 6.117 0 0 0 7.678-4.294 6.488 6.488 0 0 0 -4.526-7.811z" opacity=".9"/><path d="m323.511 209.095a6.111 6.111 0 0 0 -7.668 4.312 6.485 6.485 0 0 0 4.516 7.793 6.117 6.117 0 0 0 7.678-4.294 6.488 6.488 0 0 0 -4.526-7.811z" fill="none" stroke="#4d3009" stroke-width="1.912"/><g fill="#fff"><path d="m314.058 223.525a.9.9 0 0 1 -1.739-.479c.309-1.079 1.14-1.742 1.668-2.69.561-1.015 2.116-.107 1.553.908-.433.785-1.234 1.387-1.482 2.262zm2.769-1.777a17.961 17.961 0 0 0 -1.377 3.3c-.436 1.076 1.308 1.54 1.737.479a19.02 19.02 0 0 1 .913-2.507c.752-.877-.515-2.157-1.272-1.275zm3.748 5.324c.941-1.084.847-2.326.826-3.675a.9.9 0 0 0 -1.8 0c.01.747.235 1.788-.3 2.4-.757.872.513 2.15 1.272 1.272zm1.841-3.9a11.5 11.5 0 0 0 .479 3.277c.344 1.107 2.078.635 1.737-.479a9.72 9.72 0 0 1 -.418-2.8.9.9 0 0 0 -1.8 0z" opacity=".5"/><path d="m332 211.576c-1.772 1.063-4.437.107-5.949-2.139s-1.285-4.932.49-5.99 4.442-.11 5.941 2.137 1.295 4.929-.482 5.992z" opacity=".8"/></g></g><g transform="translate(44.938 52.974)"><g><path d="m320.793 158.35c-26.053 0-49.725 10.741-49.725 56.1 0 42.613 23.672 56.108 49.725 56.108s50.722-45.982 51.178-56.11c1.902-42.04-25.125-56.098-51.178-56.098zm29.927 65.168c-3.216 5.151-8.015 7.178-28.557 6.727-12.342-.273-16.616-4.972-25.013-2.973-7.956-2.451-12.559-8.178-9-16.417 16.215-15.647 62.659-14.619 66.045-4.549l-.255 10.58a38.453 38.453 0 0 1 -3.221 6.632z" fill="#f0c7b1"/><path d="m313.5 175.182c-23.952-.1-43.391 15.384-43.449 34.593s19.309 34.858 43.251 34.968c23.947.094 43.386-15.384 43.444-34.593s-19.289-34.855-43.246-34.968zm37.215 48.335c-3.216 5.151-8.015 7.178-28.557 6.727-12.342-.273-16.616-4.972-25.013-2.973-7.956-2.451-12.559-8.178-9-16.417 16.215-15.647 62.659-14.619 66.045-4.549l-.255 10.58a38.453 38.453 0 0 1 -3.216 6.633z" fill="url(#f)"/><path d="m350.719 223.518a38.969 38.969 0 0 0 3.223-6.633l.255-10.58c-3.386-10.07-49.83-11.1-66.045 4.549-3.56 8.239 1.043 13.966 9 16.417 8.4-2 12.671 2.7 25.013 2.973 20.542.456 25.335-1.578 28.554-6.726z" fill="url(#g)"/><path d="m280.847 207.042c24.523-14.691 42.588-15.626 71.7-13.755-24.301-3.827-52.287-1.05-71.7 13.755z" fill="#c27b55"/><path d="m349.812 198.79c6.51 1.3 13.512 11.172 13.512 11.172l-5.6-1.9c-1.114 4.516-1.181 4.756-3.782 8.68v-9.932c-3.792-10.667-61.685-10.542-69.949 10.662.488-3.402 9.242-29.948 65.819-18.682zm-26.8 31.9c24.225.148 25.661-2.389 27.731-7.719-3.973 4.361-7.959 6.742-28.369 6.314-14.336-.3-17.692-6.314-29.486-1.262 8.922-3.082 16.412 2.577 30.121 2.668z"/></g><g><path d="m359.55 290.634a104.551 104.551 0 1 1 -104.713-104.487 104.495 104.495 0 0 1 104.713 104.487z" fill="url(#h)"/><path d="m350.625 137.7a95.625 95.625 0 1 1 -95.625-95.628 95.623 95.623 0 0 1 95.625 95.628z" fill="url(#i)"/></g><path d="m133.844 188.369c19.061-23.927 51.862-19.946 78.739-16.1 6.837.979 13.875 1.714 20.578 3.407 4.8 1.211 8.581 6.686 4.72 11.108-1.805 2.1-5.745 1.714-8.178 1.663-32.183-.652-68.561-19.16-95.859-.078z" fill="#2a232b"/><path d="m376.321 187.4a44.776 44.776 0 0 0 -17.96-7.367c-24.217-3.927-70.344 12.215-82.47 8.8-7.426-2.1-5.924-9.534-2.639-11.368 1.976-1.1 2.524-1.076 20.168-4.111 29.98-5.154 63.549-9.249 82.901 14.046z" fill="#2a232b"/><g><path d="m232.343 294.522c-2.239 5.263 15.132 10.945 21.723 11.294 7.14.375 27.147-7.4 23.756-12.73-3.567-5.6-16.94-.729-22.71-.729-5.742-.002-19.77-4.857-22.769 2.165z" fill="#e1ac8f"/><path d="m259.735 298.5c-.586-1.935 4.784-4.039 6.775-4.32 2.808-.408 8.568 2.045 8.053 4.06-.469 1.78-5.477-1.359-7.293-1.094-1.87.271-6.979 3.165-7.535 1.354zm-17.552-.63c2.468 0 6.13 1.589 6.8.189.8-1.67-5.454-3.726-7.293-3.5-1.52.178-6.969 3.353-6.219 4.689.702 1.226 3.459-1.38 6.713-1.38z" fill="#c27b55"/><path d="m255.227 285.6c1.548 0 4.442-1.887 4.57-5.686.513-15.32-2.438-60.774-4.57-60.614-1.989.15-5.781 44.974-4.967 60.614.201 3.827 3.22 5.686 4.967 5.686z" fill="#fff5ef" opacity=".2"/></g></g><path d="m191.977 344.246c.7 3.159.214 4.337-.884 6.694a21.138 21.138 0 0 0 .884-6.694zm72 77.862c-.054-3.24-1.178-4.953-4.177-5.944a8.548 8.548 0 0 1 4.175 5.944zm-10.148-2.918c-.134-2.785-.75-4.471-2.945-6.239a18.4 18.4 0 0 1 2.943 6.238zm-10.529-3.535a6.663 6.663 0 0 0 3.561 4.016c-1.307-.749-3.561-4.016-3.561-4.016zm-9.826-4.471c.214.643 1.821 5.034 2.222 4.471.031 0-2.539-5.408-2.218-4.471zm6.694-7.577a16.812 16.812 0 0 0 -.455 7.149 62.881 62.881 0 0 0 .459-7.15zm5.81-7.6a25.6 25.6 0 0 0 0 6.239 24.185 24.185 0 0 0 .004-6.246zm3.133 12.959a14.493 14.493 0 0 0 3.133-6.239c-.559.879-2.728 5.273-3.129 6.234zm9.8-6.265a12.883 12.883 0 0 0 1.339 7.577 69.967 69.967 0 0 1 -1.336-7.578zm-4.011-4.021a14.392 14.392 0 0 0 1.794-5.81c-.484 1.178-1.528 4.712-1.794 5.81zm10.282-4.016c-.187 1.66.134 4.739 1.794 4.471-1.261.214-1.636-3.235-1.796-4.472zm-10.282-6.694a25.74 25.74 0 0 0 1.794-6.239 25.4 25.4 0 0 0 -1.794 6.239zm-18.745 4.93a15.536 15.536 0 0 0 -.884 6.694c.269-1.236.804-5.386.884-6.694zm-7.577 16.949a18.656 18.656 0 0 0 2.222-7.149 64 64 0 0 0 -2.222 7.145zm-6.239-6.694c-1.446 1.607.455 4.471.455 4.471-.053-1.931-1.07-2.868-.454-4.475zm2.677-15.449c0-.161-.321.616.428 6.962.161-6.828-.455-7.845-.455-6.694.028-.004.028-.111.028-.274zm-10.282 5.623c.214 3.936.08 5.516.884 8.033-.267-5.708-.16-5.362-.883-8.037zm-6.694.455c-.482 2.222-.562 3.588.884 5.355-.963-1.985-.882-3.083-.882-5.359zm-11.14-5.814a16.542 16.542 0 0 0 -.4-4.5 15.885 15.885 0 0 0 .4 4.5zm4.605 1.58 1.633-7.818c-1.121 1.9-1.629 7.817-1.629 7.817zm9.211-9.612c-1.473 1.392-2.3 4.445-2.222 6.239a32.279 32.279 0 0 1 2.225-6.24zm7.149 7.6a18.925 18.925 0 0 0 .455-7.577 63.694 63.694 0 0 0 -.452 7.58zm-.455-22.759a9.257 9.257 0 0 0 -.455 4.471c.056-.21.458-4.307.458-4.467zm-7.122 7.122c1.232-1.687 0-6.239 0-6.239s.351 5.438.003 6.238zm-9.826-3.106a29.334 29.334 0 0 0 2.222 6.694 28.083 28.083 0 0 0 -2.22-6.689zm-8.916 0c-.8 4.846-.161 6.239.884 8.916a42.293 42.293 0 0 1 -.882-8.911zm-6.694-5.355c-1.071 1.714-1.446 5.783.455 8.033-1.095-2.058-.988-6.449-.452-8.029zm2.222-13.843a14.411 14.411 0 0 0 -1.339 6.239c.485-2.111 1.021-4.548 1.342-6.236zm8.488 6.694s-2.222.161-1.339 6.694c.994-8.185 1.342-6.69 1.342-6.69zm11.138 2.678a28.626 28.626 0 0 0 1.339-7.149 29.564 29.564 0 0 0 -1.339 7.152zm-5.355-16.52a12.069 12.069 0 0 0 -1.339 6.694zm10.71-4.445c-1.794 1.553-2.356 5.65-2.222 8.033 1.234-7.28 2.225-8.029 2.225-8.029zm12.049.428c-2.142 1.714-3 2.945-3.561 6.239a18.15 18.15 0 0 1 3.564-6.235zm7.6 7.149c1.714-1.687 4.016-8.916 4.016-8.916-.475-.933-3.447 7.983-4.009 8.92zm13.387-8.916c-1.5.348-3.829 7.069-4.471 8.488.81-1.148 4.48-8.484 4.48-8.484zm8.461-.455a27.431 27.431 0 0 0 -2.677 7.149 41.665 41.665 0 0 0 2.684-7.145zm10.71-1.339c-2.035 4.579-1.151 3.267-3.561 8.033 1.533-1.898 2.685-3.558 3.568-8.029zm79.254 9.371c-.7 3.159-.214 4.337.884 6.694a21.141 21.141 0 0 1 -.877-6.69zm-66.509 71.409c-3 .991-3.99 1.821-4.016 5.06.623-2.86 1.609-3.449 4.023-5.056zm7.658-1.419a8.557 8.557 0 0 0 -3.186 6.774 21.958 21.958 0 0 1 3.193-6.77zm3.963 5.435a6.581 6.581 0 0 0 3.561-4.016s-2.243 3.271-3.554 4.02zm11.138-4.016c.4.562 2.008-3.8 2.222-4.471.355-.933-2.215 4.475-2.215 4.475zm-4.016-4.927a16.812 16.812 0 0 0 -.455-7.149c.005 1.343.221 5.525.462 7.154zm-6.239-8.461a25.6 25.6 0 0 0 0-6.239 24.207 24.207 0 0 0 .007 6.244zm-6.239.428a14.347 14.347 0 0 0 3.133 6.239c-.421-.93-2.59-5.324-3.126-6.23zm-8.032 7.6a12.922 12.922 0 0 0 1.339-7.577 72.352 72.352 0 0 1 -1.332 7.586zm3.561-17.4a13.989 13.989 0 0 0 1.794 5.81c-.261-1.119-1.305-4.653-1.787-5.801zm-7.577 3.561c1.633.268 1.981-2.811 1.794-4.471-.181 1.237-.556 4.691-1.787 4.476zm7.577-14.726a25.74 25.74 0 0 0 1.794 6.239 25.4 25.4 0 0 0 -1.787-6.234zm21.42 17.859a15.536 15.536 0 0 0 -.884-6.694c.088 1.317.623 5.467.891 6.699zm4.479 3.115a19.283 19.283 0 0 0 2.222 7.149 64.01 64.01 0 0 0 -2.222-7.149zm8.033 4.927s1.9-2.838.455-4.471c.588 1.602-.429 2.539-.456 4.467zm-2.249-19.653c0-1.151-.589-.134-.455 6.694.75-6.346.428-7.122.428-6.962a1.8 1.8 0 0 1 .026.264zm9.371 13.388c.8-2.517.669-4.1.884-8.033-.697 2.671-.59 2.325-.885 8.028zm6.694-2.222c1.446-1.767 1.366-3.133.884-5.355.025 2.271.106 3.369-.885 5.35zm12.451-15.64a16.545 16.545 0 0 0 -.4 4.5 15.931 15.931 0 0 0 .4-4.5zm-6.64-1.767 1.633 7.818s-.51-5.919-1.635-7.82zm-5.36 4.467a9.59 9.59 0 0 0 -2.222-6.239 31.058 31.058 0 0 1 2.222 6.239zm-9.826-6.265a18.007 18.007 0 0 0 .455 7.577 64.372 64.372 0 0 0 -.452-7.575zm1.339-10.71a9.257 9.257 0 0 0 -.455-4.471c.029.189.431 4.286.457 4.473zm6.694-3.561s-1.232 4.552 0 6.239c-.346-.803.002-6.237.002-6.237zm7.6 9.826a28.089 28.089 0 0 0 2.222-6.694 28.078 28.078 0 0 0 -2.216 6.697zm10.255 2.222c1.071-2.678 1.714-4.1.884-8.916a42.3 42.3 0 0 1 -.878 8.919zm7.149-6.239c1.9-2.249 1.526-6.319.455-8.033.515 1.584.622 5.975-.449 8.036zm-.455-15.637a14.266 14.266 0 0 0 -1.339-6.239c.327 1.691.863 4.128 1.345 6.243zm-8.488 7.149c.884-6.533-1.339-6.694-1.339-6.694s.354-1.491 1.345 6.698zm-13.816-11.165a28.854 28.854 0 0 0 1.339 7.149 29.564 29.564 0 0 0 -1.333-7.146zm8.033-2.678a12.069 12.069 0 0 0 -1.339-6.694zm-9.826-3.106c.134-2.383-.455-6.48-2.222-8.032.005.004.996.753 2.227 8.036zm-10.71-1.339c-.562-3.32-1.419-4.552-3.561-6.239a17.68 17.68 0 0 1 3.566 6.242zm-15.181-8.033s2.3 7.229 4.016 8.916c-.557-.932-3.529-9.848-4.011-8.911zm-4.9 8.461c-.643-1.419-2.945-8.14-4.471-8.488.003.032 3.673 7.368 4.476 8.493zm-10.255-1.767a27.8 27.8 0 0 0 -2.678-7.149 41.664 41.664 0 0 0 2.683 7.154zm-9.826-.455c-2.437-4.766-1.526-3.454-3.561-8.032.888 4.475 2.013 6.135 3.566 8.036zm-5.676 63.162c-2.731 4.23-2.624 6.078-2.544 8.755a39.832 39.832 0 0 1 2.549-8.75zm-6.908-23.321a51.036 51.036 0 0 1 2.2 6.935 11.92 11.92 0 0 0 -2.195-6.93zm7.658 5.7c.669-2.731 2.088-1.9 3.454-5.7-1.549 2.468-3.396 2.816-3.45 5.708z" fill="#2a232b" transform="translate(32.187 34.951)"/><g transform="translate(83.188 103.568)"><path d="m264.088 287.172c-31.385-3.793-23.561-5.05-37.649-5.614a4.819 4.819 0 0 1 -4.552-3.706 35.916 35.916 0 0 1 -.672-11.878c5.744.694 31.255 6.156 37.216 10.144 4.877 3.338 5.007 7.282 5.657 11.054zm-89.019-11.054c6.112-4.1 32.708-9.667 36.934-10.1v-.018a1.244 1.244 0 0 1 .26-.022 35.319 35.319 0 0 1 -.672 11.878c-1.214 5.159-6.741 3.143-12.311 4.357-26.357 5.484-19.573 3.728-29.89 4.964.672-3.777.802-7.721 5.679-11.059z" fill="#6b4e40"/><path d="m212.458 265.736a35.444 35.444 0 0 1 -.65 12.16 5.008 5.008 0 0 1 -4.66 3.858 55.15 55.15 0 0 0 -7.8.65c-26.53 5.527-19.442 3.685-30.193 5.007.022-.065.022-.152.043-.217a9.962 9.962 0 0 1 2.037-1.517c14.262-10.187 38.083-1.235 40.9-19.919.128-.001.258-.022.323-.022zm8.583 0a35.443 35.443 0 0 0 .65 12.16 5.008 5.008 0 0 0 4.66 3.858 55.15 55.15 0 0 1 7.8.65c26.53 5.527 19.443 3.685 30.193 5.007-.022-.065-.022-.152-.043-.217a9.962 9.962 0 0 0 -2.037-1.517c-14.262-10.187-38.083-1.235-40.9-19.919-.127-.001-.257-.022-.322-.022zm-39.253 10.837a6.274 6.274 0 0 0 -4.248 1.344 25.829 25.829 0 0 0 -2.037 1.994c-.672.759-2.016 2.688-2.666 3.555 3.532-2.948 4.334-5.788 8.951-6.893zm7.846.672c9.407-3.295 13.07-6.741 19.789-9.212-6.111 3.767-11.27 8.085-19.788 9.212zm-7.044 1.366a67.587 67.587 0 0 1 12.463-6.5 67.559 67.559 0 0 1 -12.463 6.499zm17.34-2.449c2.167-1.777 4.747-2.016 7.044-3.793-2.362 2.431-4.226 2.297-7.044 3.792zm51.782.412a6.274 6.274 0 0 1 4.248 1.344 25.832 25.832 0 0 1 2.04 1.993c.672.759 2.016 2.688 2.666 3.555-3.535-2.948-4.337-5.788-8.954-6.893zm-27.636-8.54c6.7 2.471 10.361 5.917 19.789 9.212-8.518-1.128-13.676-5.446-19.789-9.213zm14.371 4.075a67.587 67.587 0 0 1 12.463 6.5 67.56 67.56 0 0 1 -12.463-6.501zm-11.921.26c2.3 1.777 4.877 2.016 7.044 3.793-2.818-1.496-4.682-1.362-7.045-3.794z" fill="#5c3d2e"/><path d="m258.561 275.944c-6.372-4.27-33.4-9.775-36.848-10.1v-.022c-.173-.022-.542-.065-.672-.065a35.443 35.443 0 0 0 .65 12.16 5.008 5.008 0 0 0 4.66 3.858 55.151 55.151 0 0 1 7.8.65c26.53 5.527 19.443 3.685 30.193 5.007-.711-3.901-.689-8.02-5.783-11.488zm-24.1 5.072a38.063 38.063 0 0 0 -7.37-.173 3.474 3.474 0 0 1 -3.49-2.579 64.442 64.442 0 0 1 -1.8-11.748c4.552.91 12.528 3.858 17.557 5.18 17.969 4.357 20.4 5.029 23.821 14.8-.088-.039-28.634-5.48-28.721-5.48zm-65.307 6.394c10.751-1.3 3.663.52 30.193-5.007a55.146 55.146 0 0 1 7.8-.65 4.968 4.968 0 0 0 4.66-3.858 35.993 35.993 0 0 0 .65-12.16c-.13 0-.5.065-.672.065v.022c-3.446.347-30.475 5.852-36.847 10.1-5.093 3.49-5.071 7.609-5.786 11.489zm1.17-.91c3.425-9.775 5.852-10.447 23.821-14.8 5.029-1.322 13.005-4.27 17.557-5.18a64.442 64.442 0 0 1 -1.8 11.748 3.516 3.516 0 0 1 -3.49 2.579 41.872 41.872 0 0 0 -7.369.173c-.088-.004-28.634 5.437-28.721 5.48z" fill="#3d2012"/></g><g transform="translate(44.938 52.974)"><path d="m388.049 244.854c-11.041-29.2-6.11-51.107-8.229-94.885-3.272-67.391-19.082-59.106-55.46-61.746-56.212-4.072-75.743-30.1-117.649-30.1-22.662 0-49.062 10.322-69.291 28.053-16.264 110.887 6.727 101.669-17.2 157.7-15.18-15.93-17.139-40.456-28.392-72.662-8.973-26.65-6.778-28.078-16.644-40.925 6.334 1.145 6.972 1.094 9.8 1.094-5.023-10.98-11.421-30.475-13.844-38.946 5.939-2.846 12.339-9.968 16.5-15.093a89.636 89.636 0 0 1 -5.3-16.894c.2-.066 1.117-.408 1.117-.408l.01-.043c14.487-6.163 17.442-40.657 27.5-49.442 4.95-4.626 9.705-6.454 14.112-8.787a71.077 71.077 0 0 1 1.466-9.257c23.975-6.429 31.248-3.057 65.1-12.477 11.638-3.239 19.658-5.49 44.158-4.462 8.989 4.536 40.953 26.721 64.984 4.085 18.499 11.549 34.613 13.022 57.692 26.147 38.706 22.67 43.972 38.625 41.7 75.378 26.755 35.616 20.821 77.946 9.121 120.437-7.321 26.306-14.341 34.92-21.251 43.233z" fill="#543c32"/><path d="m387.6 209.1c-2.55-20.4 7.65-38.25 10.2-56.1-2.55 5.1-7.65 7.65-7.65 12.75 0-17.85 7.65-33.15 5.1-51a19.909 19.909 0 0 1 -10.2 10.2c7.65-17.85 0-38.25-12.75-53.55 2.55 7.65 5.1 12.75 5.1 20.4-15.3-22.95-51-25.5-76.5-38.25 5.1 7.65 15.3 12.75 22.95 17.85-35.7-12.75-68.85-28.05-102-43.35 5.625 5.625 9.881 15.361 16.8 19.122 2.915.416 2.494 1.354 0 0-30.62-4.358-62.809-7.7-90.752-21.672 0 10.2 7.65 17.85 15.3 22.95-7.65 0-15.3-7.65-20.4-5.1-7.65 5.1 7.65 10.2 5.1 15.3-7.65 5.1-15.3-2.55-22.95-2.55 5.1 7.65 0 20.4 5.1 28.05-5.1-2.55-10.2-7.65-10.2-5.1-2.55 10.2-7.65 12.75-7.65 20.4 0 12.75 7.65 25.5 7.65 38.25 0-4.1-4.942-3.261-6.877-5.424 12.773 35.636 12.194 73.165 6.645 110.917.209.227.393.469.6.691 23.924-56.036.933-46.818 17.2-157.7 20.229-17.73 46.629-28.053 69.291-28.053 41.909 0 61.44 26.028 117.652 30.1 36.378 2.642 52.188-5.646 55.46 61.746 2.117 43.778-2.815 65.685 8.229 94.885.013-.013.023-.028.036-.041 1.657-18.9 7.163-36.233 7.163-53.563a124.326 124.326 0 0 0 -7.647 17.842z" fill="#351f15"/><path d="m406.121 182.294c-.788 1.675-5.771 2.18-5.771 3.856 0-7.65 8.966-13.37 7.456-26.173 0 1.01-8.053 7.522-8.861 8.532-.525 2.55 10.934-27.237 10.934-37.082-3.759 6.27-6.979 6.273-6.979 11.373 0-10.2-.015-25.128-.015-35.328 0 5.1-5.085 12.62-5.085 17.72 2.379-19.033-8.68-41.042-10.914-59.928-1.3 4.577-3.771 9.917-1.836 13.785-7.65-10.2-5.1-28.05-17.85-35.7-2.55 5.1-2.55 10.2-5.1 15.3-7.65-10.2-17.85-17.85-22.95-28.05v12.751c-12.75-10.2-30.6-15.3-38.25-30.6v17.85c-10.2-2.55-26.762-11.72-31.862-19.37 0 7.65 8.912 19.37 8.912 27.02-20.4-10.2-35.7-25.5-56.1-35.7 0 5.1 5.1 10.2 2.55 15.3-10.2-5.1-30.016-5.1-35.116-15.3 0 7.65 7.931 15.3 7.931 22.95-22.95-2.55-28.073-9.746-49.067-19.37-2.55 5.1-5.347 11.72-7.9 16.82-5.1-5.1-7.65-10.2-15.3-10.2 0 7.65 7.65 17.85 2.55 25.5-2.55 2.55-12.75-7.65-12.75-5.1-5.1 10.2 0 25.5-5.1 35.7 0 2.55-7.65-5.1-12.75-2.55 9.874 14.808 3.065 32 9.55 46.961a9.378 9.378 0 0 1 .65 1.489c-.245-.492-.433-.992-.65-1.489-3.3-6.191-12.278-6.7-14.65-13.811 0 18.623 10.6 35.124 14.395 53.377 1.288.768 1.935 2.183.905 5.273-.222-1.777-.546-3.532-.905-5.273-1.907-1.137-5.225-.857-6.745-2.377 12.056 24.11 15.787 65.466 20.168 92.741 9.04-39.2 4.358-80.213-6.645-110.917a3.16 3.16 0 0 1 -.773-2.224c.278.74.5 1.484.773 2.226 1.938 2.162 6.877 1.323 6.877 5.424 0-12.75-7.65-25.5-7.65-38.25 0-7.65 5.1-10.2 7.65-20.4 0-2.55 5.1 2.55 10.2 5.1-5.1-7.65 0-20.4-5.1-28.05 7.65 0 15.3 7.65 22.95 2.55 2.55-5.1-12.75-10.2-5.1-15.3 5.1-2.55 12.75 5.1 20.4 5.1-7.65-5.1-15.3-12.75-15.3-22.95 27.943 13.971 60.132 17.315 90.752 21.672-6.921-3.761-11.177-13.5-16.8-19.122 33.15 15.3 66.3 30.6 102 43.35-7.65-5.1-17.85-10.2-22.95-17.85 25.5 12.75 61.2 15.3 76.5 38.25 0-7.65-2.55-12.75-5.1-20.4 12.75 15.3 20.4 35.7 12.75 53.55a19.909 19.909 0 0 0 10.2-10.2c2.55 17.85-5.1 33.15-5.1 51 0-5.1 5.1-7.65 7.65-12.75-2.55 17.85-12.75 35.7-10.2 56.1a124.326 124.326 0 0 1 7.65-17.85c0 17.33-5.505 34.667-7.168 53.56 2.076-2.5 4.164-5.036 6.265-8.066-.257-18.9 7.224-34.432 11.774-54.45z" fill="#452c22"/><path d="m237.453 46.5a45.627 45.627 0 0 1 -12.6-.245c-17.08-2.364-72.973-4.572-76.016-22.068 2.69 8.55 18.883 10.962 31.12 13.255 0 0 8.624 1.66 22.244 3.19 25.491 2.976 20.105 4.982 35.252 5.868zm58.084 14.053c-60.937-26.41-56.6-23.5-70.834-32.541 18.7 15.7 25.089 15.739 57.678 30.646 15.1 6.8 18.049 6.531 38.584 11.429-14.394-5.722-16.09-5.605-25.428-9.535zm6.941-7.678c25.281 20.79 56.12 15.619 75.863 38.25-15.823-25.034-50.62-22.51-75.863-38.251zm-149.721-8.68c-6.8-2.053-10.192-1.1-13.479 1.03 10.774-5.072 22.06 7.454 35.063 3.825-6.026.734-21.583-4.35-21.583-4.856zm-7.277 16.832c-5.936-1.872-13.268-5.046-18.235-4.914-2.627.061-3.267 1.224-3.267 1.224 2.486-2.9 14.3 2.8 21.41 4.146a14.3 14.3 0 0 0 3.453.314 17.16 17.16 0 0 1 -3.361-.77zm-29.067 29.952c1.752-4.825 3.726-9.565 3.2-13.979a11.005 11.005 0 0 0 -.737-2.448c1.183 5.031-.8 8.1-4.284 15.647-7.688 16.455 2.356 29.284 6.2 46.828-1.299-20.069-10.719-28.935-4.379-46.048zm277.228 26.283c.816 5.528.574 9.257-.393 18.041a274.65 274.65 0 0 1 -5.345 29.134c5.297-12.36 9.744-33.395 5.738-47.175zm3.825 39.525c-8.637 23.937-10.037 32.757-11.475 51.637 9.509-43.957 4.883-21.881 11.475-51.637z" fill="#543c32"/><path d="m292.916-4.5c-15.621 2.461-31.926 4.422-61.2-13.388 28.254 12.788 41.984 14.02 61.2 13.388zm34.507 4.985c-15.494-5.595-16.511-12.158-28.132-15.823 10.609 4.804 10.524 10.972 24.375 17.238 6.737 3.185 30.146 9.644 44.475 18.969-12.658-11.194-21.173-13.069-40.718-20.384zm-172.845-5.623c29.562.615 34.275-6.933 68.213-10.838-30.513-.38-33.744 6.895-68.213 10.838zm77.138.638c11.906 1.425 29.084 12.1 34.425 24.224-3.899-13.591-20.828-24.148-34.425-24.224zm66.3 3.825c11.863 6.311 16.085 19.632 30.6 22.312-14.242-4.713-17.062-17.037-30.6-22.313zm-20.4 2.55c3.042 5.184 7.471 10.473 19.125 17.85-13.599-11.175-15.932-13.525-19.125-17.851zm59.284 12.112c13.043 1.6 26.65 14.441 28.05 28.688.656-14.041-11.959-28.443-28.05-28.688zm44.214 21.731c-5.883-7.512-11.064-9.287-13.614-10.256 3.641 1.89 7.642 4.4 12.408 11.184 0 0 8.764 11.653 12.454 24.516a55.519 55.519 0 0 0 -11.244-25.444zm-242.473-36.394c.472-1 13.576 4.758 14.612 5.177 3.134 1.221 18.827 7.566 24.276 8.211-2.553-.684-38.75-16.318-38.888-13.388zm-21.675 15.938a79.563 79.563 0 0 1 5.125 8.275s.755 1.334 1.456 2.7 1.3 2.769 1.3 2.769c1.719 3.919 2.537 6.339 2.652 9.244.644-7.602-5.859-18.176-10.533-22.988zm-7.65 7.65c-6.418 15.68-6.347 24.755 0 40.8-3.986-16.075-4.802-23.685 0-40.8z" fill="#634e45"/><path d="m400.959 80.95c.581-8.925.824-14.494.051-23.307-2.9-25.829-18.4-38.6-42.149-52.5-23.352-13.285-39.561-14.67-58.168-26.448-23.8 23.057-55.934.469-64.694-3.876-42.779-1.826-36.187 6.421-83.513 12.189-17.452 1.971-24.658 4.386-24.658 4.386-.663.179-1.326.332-1.938.51a74.106 74.106 0 0 0 -1.53 9.384c-3.866 2.043-8.884 4.009-13.9 8.7-10.319 9.012-13.287 43.843-27.613 49.44v.026a10.982 10.982 0 0 1 -1.4.459 91.682 91.682 0 0 0 5.3 17.314c-4.065 5-10.634 12.258-16.524 14.79 1.392 5.049 8.448 27.415 13.566 38.607-2.805 0-5.108-.495-10.43-1.428 11.189 14.224 8.367 14.415 17.748 42.279 11.427 32.706 13.28 57.617 29.3 73.7 14.364-27.147 13.122-39.737 13.234-49.5.314-13.426-6.2-47.078 4.934-109.135 23.618-20.668 57.064-32.523 88.778-25.327 33.153 7.5 49.789 24.355 96.951 27.77 36.717 2.667 51.513-5.643 54.751 61.021 2.145 44.3-2.966 66.359 8.746 96.339 6.809-8.211 14.399-16.343 22.239-44.523 11.472-41.662 17.891-84.676-9.081-120.87zm9.642 99.4c-8.843 42.322-14 50-23.106 63.648-7.349-22.644-5.337-44.549-4.59-67.8 3.789-100.077-21.481-88.8-58.293-91.6-45.1-3.04-62.786-20.135-96.288-26.877-30.529-6.248-64.388 1.925-92.693 28.458-15.415 69.176 1.474 106.1-12.189 141.194-2.963 7.5-1.094 9.42-3.264 14.892-11.822-17.794-14.979-42.922-18.9-55.564-12.2-31.049-11.812-41.236-25.092-56.023a30.78 30.78 0 0 0 10.735.612c-.025-.026-.025-.026-.025-.051-.847-2.553-11.536-31.8-14.662-39.092 6.092-2.938 12.066-9.553 16.197-14.867-3.295-10.424.8 4.85-5.355-16.983 18.783-5.648 16.83-41.119 35.981-54.085 2.542-1.7 4.794-3.093 7.293-4.667.564-4.791.181-1.966 1.326-9.257 22.448-4.623 31.62-.061 64.209-10.328 24.687-6.008 42.422-5.786 44.982-5.508 15.726 9.848 24.623 15.4 43.121 14.1 8.474-.694 15.213-4.789 21.114-10.812 10.225 7.67 21.637 12.319 35.674 18.743 56.724 25.964 61.784 47.073 61.784 82.061a90.117 90.117 0 0 1 9.435 18.334c11.717 28.922 7.9 56.766 2.605 81.473z" fill="#26130b"/></g><g fill="#fff" stroke="#707070"><circle cx="432.155" cy="347.534" r="1" stroke="none"/><circle cx="432.155" cy="347.534" fill="none" r=".5"/></g><path d="m694.7 596.054c3.235 2.835-1.943 9.522-6.22 8.063-4.916-1.968-6.189-10.3-.165-12.149" fill="none" stroke="#f7d100" stroke-linecap="square" stroke-linejoin="round" stroke-width="1.5" transform="translate(-255.845 -244.466)"/></g></svg>